<svg xmlns="http://www.w3.org/2000/svg" xmlns:xlink="http://www.w3.org/1999/xlink" viewBox="0 0 48 48"><defs><style>.cls-1{fill:url(#linear-gradient);}.cls-2{fill:url(#linear-gradient-2);}.cls-3{fill:url(#linear-gradient-3);}.cls-4{fill:url(#linear-gradient-4);}.cls-5{fill:url(#linear-gradient-5);}.cls-6{fill:url(#linear-gradient-6);}.cls-7{fill:url(#linear-gradient-7);}.cls-8{fill:url(#linear-gradient-8);}.cls-9{fill:url(#linear-gradient-9);}.cls-10{fill:url(#linear-gradient-10);}.cls-11{fill:url(#linear-gradient-11);}.cls-12{fill:url(#linear-gradient-12);}.cls-13{fill:url(#linear-gradient-13);}.cls-14{fill:url(#linear-gradient-14);}.cls-15{fill:url(#linear-gradient-15);}.cls-16{fill:url(#linear-gradient-16);}.cls-17{fill:url(#linear-gradient-17);}</style><linearGradient id="linear-gradient" x1="7.82" y1="30.7" x2="18.9" y2="-2.3" gradientUnits="userSpaceOnUse"><stop offset="0" stop-color="#f3c57a"/><stop offset="0.49" stop-color="#f39369"/><stop offset="1" stop-color="#e94867"/></linearGradient><linearGradient id="linear-gradient-2" x1="15.32" y1="24.16" x2="20.56" y2="8.55" xlink:href="#linear-gradient"/><linearGradient id="linear-gradient-3" x1="332.82" y1="30.7" x2="343.9" y2="-2.3" gradientTransform="matrix(-1, 0, 0, 1, 373, 0)" xlink:href="#linear-gradient"/><linearGradient id="linear-gradient-4" x1="340.32" y1="24.16" x2="345.56" y2="8.55" gradientTransform="matrix(-1, 0, 0, 1, 373, 0)" xlink:href="#linear-gradient"/><linearGradient id="linear-gradient-5" x1="24" y1="1.13" x2="24" y2="31.92" xlink:href="#linear-gradient"/><linearGradient id="linear-gradient-6" x1="24" y1="80.58" x2="24" y2="-10.72" xlink:href="#linear-gradient"/><linearGradient id="linear-gradient-7" x1="24" y1="45.8" x2="24" y2="35.15" gradientUnits="userSpaceOnUse"><stop offset="0" stop-color="#fff"/><stop offset="0.52" stop-color="#cce2e6"/><stop offset="1" stop-color="#8fa1bb"/></linearGradient><linearGradient id="linear-gradient-8" x1="24" y1="44.69" x2="24" y2="41.12" xlink:href="#linear-gradient-7"/><linearGradient id="linear-gradient-9" x1="24" y1="31.34" x2="24" y2="65.42" xlink:href="#linear-gradient"/><linearGradient id="linear-gradient-10" x1="16.5" y1="39.67" x2="16.5" y2="9.75" xlink:href="#linear-gradient"/><linearGradient id="linear-gradient-11" x1="31.5" y1="39.67" x2="31.5" y2="9.75" xlink:href="#linear-gradient"/><linearGradient id="linear-gradient-12" x1="16.5" y1="46.75" x2="16.5" y2="38.06" gradientUnits="userSpaceOnUse"><stop offset="0" stop-color="#273a9b"/><stop offset="0.56" stop-color="#202f65"/><stop offset="1" stop-color="#021e2f"/></linearGradient><linearGradient id="linear-gradient-13" x1="15.75" y1="34.21" x2="15.75" y2="31.46" xlink:href="#linear-gradient-12"/><linearGradient id="linear-gradient-14" x1="31.5" y1="46.75" x2="31.5" y2="38.06" xlink:href="#linear-gradient-12"/><linearGradient id="linear-gradient-15" x1="30.75" y1="34.21" x2="30.75" y2="31.46" xlink:href="#linear-gradient-12"/><linearGradient id="linear-gradient-16" x1="24" y1="26.21" x2="24" y2="37.4" xlink:href="#linear-gradient"/><linearGradient id="linear-gradient-17" x1="23.77" y1="43.81" x2="23.9" y2="39.98" xlink:href="#linear-gradient"/></defs><title>bunny, rabbit, animal, pet</title><g id="ART"><path class="cls-1" d="M8.43,18.38l4.3-4.3a3.76,3.76,0,0,1,6.05,1l2.9,6.12A16.78,16.78,0,0,0,22.5,16c0-7.2-4.37-13-9.75-13S3,8.83,3,16q0,.09,0,.19a3.16,3.16,0,0,0,3.18,3.1h0A3.18,3.18,0,0,0,8.43,18.38Z"/><path class="cls-2" d="M13.52,13.48a3.76,3.76,0,0,1,5.26,1.65l2.9,6.12A16.78,16.78,0,0,0,22.5,16q0-.52,0-1a3.78,3.78,0,0,0-3.68-3.56h0A8,8,0,0,0,13.52,13.48Z"/><path class="cls-3" d="M39.57,18.38l-4.3-4.3a3.76,3.76,0,0,0-6.05,1l-2.9,6.12A16.78,16.78,0,0,1,25.5,16c0-7.2,4.37-13,9.75-13S45,8.83,45,16q0,.09,0,.19a3.16,3.16,0,0,1-3.18,3.1h0A3.18,3.18,0,0,1,39.57,18.38Z"/><path class="cls-4" d="M34.48,13.48a3.76,3.76,0,0,0-5.26,1.65l-2.9,6.12A16.78,16.78,0,0,1,25.5,16q0-.52,0-1a3.78,3.78,0,0,1,3.68-3.56h0A8,8,0,0,1,34.48,13.48Z"/><path class="cls-5" d="M39,29.43A36.37,36.37,0,0,1,35.88,24C33.6,19,29.14,15,24,15s-9.6,4-11.88,9A36.37,36.37,0,0,1,9,29.43,8,8,0,0,0,7.5,34c0,6.08,7.39,11,16.5,11s16.5-4.92,16.5-11A8,8,0,0,0,39,29.43Z"/><path class="cls-6" d="M39,29.43A36.37,36.37,0,0,1,35.88,24C33.6,19,29.14,19.5,24,19.5S14.4,19,12.12,24A36.37,36.37,0,0,1,9,29.43,8,8,0,0,0,7.5,34c0,6.08,7.39,11,16.5,11s16.5-4.92,16.5-11A8,8,0,0,0,39,29.43Z"/><path class="cls-7" d="M26,39.75H22v2.64a1.06,1.06,0,0,0,.94,1.06c.36,0,.73.05,1.1.05s.74,0,1.1-.05A1.06,1.06,0,0,0,26,42.39Z"/><path class="cls-8" d="M22,42.39a1.06,1.06,0,0,0,.38.8,3.74,3.74,0,0,0,.83-.31,1.79,1.79,0,0,1,1.68,0,3.74,3.74,0,0,0,.83.31,1.06,1.06,0,0,0,.38-.8V39.75H22Z"/><path class="cls-9" d="M26.6,36.5a3.88,3.88,0,0,0-.75.07,9.66,9.66,0,0,1-3.71,0,3.88,3.88,0,0,0-.75-.07,3.26,3.26,0,1,0,0,6.5,3.8,3.8,0,0,0,1.76-.43,1.79,1.79,0,0,1,1.68,0A3.8,3.8,0,0,0,26.6,43a3.26,3.26,0,1,0,0-6.5Z"/><ellipse class="cls-10" cx="16.5" cy="31.88" rx="3" ry="3.75"/><ellipse class="cls-11" cx="31.5" cy="31.88" rx="3" ry="3.75"/><circle class="cls-12" cx="16.5" cy="33" r="1.5"/><path class="cls-13" d="M16.5,31.5A1.5,1.5,0,0,0,15,33h1.5Z"/><circle class="cls-14" cx="31.5" cy="33" r="1.5"/><path class="cls-15" d="M31.5,31.5A1.5,1.5,0,0,0,30,33h1.5Z"/><path class="cls-16" d="M27.34,36.26A3.61,3.61,0,0,1,24,39a3.61,3.61,0,0,1-3.34-2.74c0-.91,1.49-1.65,3.34-1.65S27.34,35.35,27.34,36.26Z"/><path class="cls-17" d="M22.27,36.3a1.08,1.08,0,0,0-.39,1.87,3.14,3.14,0,0,0,4.16.07,1.11,1.11,0,0,0-.42-2A6.17,6.17,0,0,0,24,36.06,6.09,6.09,0,0,0,22.27,36.3Z"/></g></svg>